<svg xmlns="http://www.w3.org/2000/svg" viewBox="0 0 168 96" width="336" height="192">
  <line x1="84" y1="12" x2="108" y2="60" stroke="#112338" stroke-width="0.5" opacity="0.10"></line>
  <line x1="84" y1="12" x2="132" y2="36" stroke="#112338" stroke-width="0.5" opacity="0.09"></line>
  <line x1="108" y1="12" x2="108" y2="36" stroke="#112338" stroke-width="0.5" opacity="0.02"></line>
  <line x1="108" y1="12" x2="132" y2="36" stroke="#112338" stroke-width="0.5" opacity="0.03"></line>
  <line x1="132" y1="12" x2="132" y2="36" stroke="#112338" stroke-width="0.5" opacity="0.04"></line>
  <line x1="132" y1="12" x2="108" y2="36" stroke="#112338" stroke-width="0.5" opacity="0.03"></line>
  <line x1="108" y1="36" x2="132" y2="60" stroke="#112338" stroke-width="0.5" opacity="0.12"></line>
  <line x1="108" y1="36" x2="108" y2="60" stroke="#112338" stroke-width="0.5" opacity="0.11"></line>
  <line x1="108" y1="36" x2="132" y2="84" stroke="#112338" stroke-width="0.5" opacity="0.02"></line>
  <line x1="132" y1="36" x2="132" y2="60" stroke="#112338" stroke-width="0.5" opacity="0.16"></line>
  <line x1="156" y1="36" x2="108" y2="60" stroke="#112338" stroke-width="0.5" opacity="0.04"></line>
  <line x1="156" y1="36" x2="132" y2="60" stroke="#112338" stroke-width="0.5" opacity="0.07"></line>
  <line x1="36" y1="60" x2="12" y2="84" stroke="#112338" stroke-width="0.5" opacity="0.02"></line>
  <line x1="36" y1="60" x2="108" y2="60" stroke="#112338" stroke-width="0.5" opacity="0.05"></line>
  <line x1="108" y1="60" x2="156" y2="60" stroke="#112338" stroke-width="0.5" opacity="0.06"></line>
  <line x1="108" y1="60" x2="132" y2="60" stroke="#112338" stroke-width="0.5" opacity="0.09"></line>
  <line x1="132" y1="60" x2="156" y2="60" stroke="#112338" stroke-width="0.5" opacity="0.04"></line>
  <line x1="132" y1="60" x2="132" y2="84" stroke="#112338" stroke-width="0.5" opacity="0.02"></line>
  <circle cx="12" cy="12" r="1.5" fill="#112338" opacity="0.07"></circle>
  <circle cx="36" cy="12" r="1.5" fill="#112338" opacity="0.07"></circle>
  <circle cx="60" cy="12" r="1.5" fill="#112338" opacity="0.07"></circle>
  <circle cx="84" cy="12" r="1.5" fill="#112338" opacity="0.19"></circle>
  <circle cx="108" cy="12" r="1.5" fill="#112338" opacity="0.10"></circle>
  <circle cx="132" cy="12" r="1.5" fill="#112338" opacity="0.12"></circle>
  <circle cx="156" cy="12" r="1.5" fill="#112338" opacity="0.07"></circle>
  <circle cx="12" cy="36" r="1.5" fill="#112338" opacity="0.07"></circle>
  <circle cx="36" cy="36" r="1.5" fill="#112338" opacity="0.06"></circle>
  <circle cx="60" cy="36" r="1.5" fill="#112338" opacity="0.06"></circle>
  <circle cx="84" cy="36" r="1.5" fill="#112338" opacity="0.07"></circle>
  <circle cx="108" cy="36" r="1.5" fill="#112338" opacity="0.21"></circle>
  <circle cx="132" cy="36" r="1.5" fill="#112338" opacity="0.29"></circle>
  <circle cx="156" cy="36" r="1.5" fill="#112338" opacity="0.14"></circle>
  <circle cx="12" cy="60" r="1.5" fill="#112338" opacity="0.07"></circle>
  <circle cx="36" cy="60" r="1.5" fill="#112338" opacity="0.13"></circle>
  <circle cx="60" cy="60" r="1.5" fill="#112338" opacity="0.08"></circle>
  <circle cx="84" cy="60" r="1.5" fill="#112338" opacity="0.07"></circle>
  <circle cx="108" cy="60" r="1.5" fill="#112338" opacity="0.19"></circle>
  <circle cx="132" cy="60" r="1.5" fill="#112338" opacity="0.26"></circle>
  <circle cx="156" cy="60" r="1.5" fill="#112338" opacity="0.13"></circle>
  <circle cx="12" cy="84" r="1.5" fill="#112338" opacity="0.09"></circle>
  <circle cx="36" cy="84" r="1.5" fill="#112338" opacity="0.07"></circle>
  <circle cx="60" cy="84" r="1.5" fill="#112338" opacity="0.07"></circle>
  <circle cx="84" cy="84" r="1.5" fill="#112338" opacity="0.07"></circle>
  <circle cx="108" cy="84" r="1.5" fill="#112338" opacity="0.08"></circle>
  <circle cx="132" cy="84" r="1.5" fill="#112338" opacity="0.10"></circle>
  <circle cx="156" cy="84" r="1.5" fill="#112338" opacity="0.06"></circle>
  <g fill="#112338" id="carte-text" transform="translate(-125.55, -159.56) scale(2.1203)">
    <path d="m 72.16252,94.191668 c -1.795639,0 -3.340682,0.389799 -4.635376,1.169437 -1.294694,0.779639 -2.289858,1.864121 -2.98483,3.254066 C 63.847341,100.00159 63.5,101.6016 63.5,103.41488 c 0,1.80975 0.347341,3.40596 1.042314,4.78885 0.694972,1.37936 1.690136,2.45349 2.98483,3.22254 1.294694,0.77259 2.839737,1.15911 4.635376,1.15911 2.166056,0 3.9403,-0.52917 5.32319,-1.5875 0.868644,-0.66648 1.52769,-1.49577 1.976623,-2.48822 -0.0052,0.0941 -0.0078,0.18949 -0.0078,0.2868 0,0.69497 0.181308,1.32977 0.544669,1.90479 0.363361,0.57856 0.883812,1.03748 1.561145,1.37615 0.677333,0.33866 1.481439,0.50798 2.412773,0.50798 0.896056,0 1.691962,-0.18726 2.386934,-0.56121 0.694973,-0.37394 1.2628,-0.84814 1.703772,-1.42317 0.28575,0.6597 0.733799,1.10395 1.344104,1.33325 0.610307,0.22931 1.372472,0.34417 2.286167,0.34417 h 0.788065 2.973979 v -5.33404 c 0,-0.9137 0.08819,-1.68786 0.264583,-2.32286 0.176389,-0.635 0.460561,-1.11299 0.852145,-1.43402 0.388055,-0.32455 0.892402,-0.53694 1.52032,-0.5364 l 1.882056,0.002 h 0.02531 2.13372 v 5.61465 c 0,1.10067 0.15188,1.94231 0.45527,2.52439 0.30692,0.58561 0.75989,0.97869 1.35961,1.17978 0.60325,0.20462 1.34419,0.30697 2.2226,0.30697 h 2.5399 v -2.89905 c 0.0174,0.0316 0.0352,0.0633 0.0532,0.0946 0.55738,0.97367 1.33535,1.73531 2.33369,2.28565 1.00191,0.55033 2.15334,0.82579 3.45509,0.82579 1.016,0 1.93498,-0.19054 2.75694,-0.57154 0.82197,-0.381 1.51717,-0.89766 2.08514,-1.5503 0.56445,-0.65264 0.96676,-1.38486 1.20665,-2.19625 h -3.63544 c -0.21872,0.42334 -0.5312,0.76576 -0.9369,1.02682 -0.40922,0.26105 -0.91007,0.39119 -1.50275,0.39119 -0.60678,0 -1.14301,-0.13014 -1.60869,-0.39119 -0.46567,-0.26106 -0.82551,-0.63886 -1.07952,-1.13275 -0.22225,-0.38806 -0.34911,-0.82687 -0.38086,-1.31723 h 9.44542 c 0.0353,-0.22225 0.0532,-0.44274 0.0532,-0.66146 v -0.56121 c 0,-1.19944 -0.27165,-2.27029 -0.81493,-3.21221 -0.53975,-0.93838 -1.2932,-1.6788 -2.25981,-2.22208 -0.96661,-0.539752 -2.07612,-0.809772 -3.32848,-0.809772 -1.31939,0 -2.47791,0.287452 -3.47627,0.862482 -0.97649,0.56045 -1.73863,1.33059 -2.28617,2.30993 v -2.870622 h -3.1011 v -3.455603 h -3.55586 v 3.455603 h -2.139932 v -5.17e-4 l -1.538924,-0.0011 c 0,0 -1.14978,0.127565 -1.65778,0.490929 -0.508,0.36689 -1.002853,0.791 -1.34152,1.41542 v -1.904774 h -3.555855 v 9.566864 c -0.0653,-0.0185 -0.125189,-0.0414 -0.179835,-0.0687 -0.169333,-0.0847 -0.292908,-0.28229 -0.370519,-0.59273 -0.07408,-0.31397 -0.111105,-0.79361 -0.111105,-1.43919 v -2.61379 c 0,-1.65806 -0.546599,-2.93196 -1.64021,-3.82096 -1.090083,-0.889002 -2.584469,-1.333254 -4.482413,-1.333254 -0.966612,0 -1.846399,0.163876 -2.640149,0.49196 -0.797278,0.331614 -1.445101,0.809604 -1.942518,1.434024 -0.500944,0.62794 -0.802548,1.39011 -0.904854,2.28616 h 3.328479 c 0.119945,-0.53975 0.382888,-0.91211 0.788583,-1.11672 0.405694,-0.20109 0.862458,-0.30128 1.370459,-0.30128 0.744361,0 1.358442,0.18511 1.841747,0.55552 0.483306,0.37395 0.725021,0.97552 0.725021,1.80455 v 0.60823 c -0.321028,-0.10231 -0.740771,-0.2025 -1.259355,-0.30128 -0.515055,-0.1023 -1.137853,-0.15348 -1.868103,-0.15348 -1.524,0 -2.755442,0.35986 -3.693831,1.07953 -0.342006,0.26228 -0.621351,0.56317 -0.838708,0.90278 0.0046,-0.0257 0.009,-0.0516 0.01344,-0.0775 h -3.910355 c -0.204612,0.89605 -0.645584,1.58582 -1.322917,2.06912 -0.677333,0.48331 -1.575587,0.72502 -2.693893,0.72502 -1.04775,0 -1.943846,-0.24171 -2.688208,-0.72502 -0.747888,-0.4833 -1.318996,-1.16979 -1.714107,-2.05879 -0.398639,-0.889 -0.597896,-1.95061 -0.597896,-3.18533 0,-1.23825 0.199257,-2.3053 0.597896,-3.20136 0.395111,-0.896055 0.966219,-1.585819 1.714107,-2.069124 0.744362,-0.483305 1.640458,-0.72502 2.688208,-0.72502 1.118306,0 2.021479,0.257507 2.709396,0.772563 0.684389,0.518583 1.129158,1.252443 1.333768,2.201421 h 3.910356 C 79.741785,98.428384 78.886506,96.90457 77.496561,95.821543 76.106617,94.734987 74.328576,94.191668 72.16252,94.191668 Z m 42.41808,8.053772 c 0.762,0 1.4006,0.22377 1.91565,0.67179 0.51858,0.44803 0.80224,1.04632 0.85162,1.79421 h -5.81566 c 0.067,-0.35631 0.17645,-0.67042 0.32815,-0.94206 0.27163,-0.508 0.64944,-0.88908 1.13274,-1.14308 0.48331,-0.254 1.01247,-0.38086 1.5875,-0.38086 z m -8.89041,0.40721 h 3.04478 c -0.54092,1.00973 -0.81133,2.16154 -0.81133,3.4556 0,1.17672 0.24038,2.22633 0.72192,3.14865 h -1.43092 c -0.38805,0 -0.69673,-0.0387 -0.92604,-0.11627 -0.2293,-0.0741 -0.38662,-0.21346 -0.47129,-0.41807 -0.0847,-0.20461 -0.12712,-0.50129 -0.12712,-0.88935 z m -20.753772,4.31808 c 0.45861,0 0.912096,0.0463 1.360123,0.13798 0.448028,0.0952 0.841106,0.19216 1.179773,0.29094 -0.116417,0.47625 -0.292805,0.90471 -0.529167,1.28571 -0.239888,0.381 -0.53226,0.67716 -0.877982,0.88883 -0.345723,0.21167 -0.765982,0.31781 -1.259872,0.31781 -0.53975,0 -0.969849,-0.13229 -1.290877,-0.39687 -0.324555,-0.26106 -0.486792,-0.59476 -0.486792,-1.00046 0,-0.49036 0.186745,-0.86765 0.56069,-1.13223 0.373944,-0.26106 0.821992,-0.39171 1.344104,-0.39171 z"></path>
  </g>
</svg>